# xmcd
#
# Track frame offsets: 
#        150
#        13399
#        27627
#        39781
#        52994
#        66358
#        82021
#        98930
#        112229
#        124361
#        145902
#        162101
#        177141
#        193488
#        207356
#        217871
#        231344
#        249383
#        264106
#        285698
#
# Disc length: 4005 seconds
#
# Revision: 2
# Processed by: cddbd v1.5.2PL0 Copyright (c) Steve Scherf et al.
# Submitted via: ExactAudioCopyFreeDBPlugin 1.0
#
DISCID=2d0fa314
DTITLE=Various Artist - Country Music: A Film by Ken Burns [CD 4]
DYEAR=2019
DGENRE=Country
TTITLE0=Waylon Jennings - Are You Sure Hank Done It This Way
TTITLE1=Dolly Parton - Mule Skinner Blues (Blue Yodel No. 8)
TTITLE2=Dolly Parton - Jolene
TTITLE3=Dolly Parton - I Will Always Love You
TTITLE4=George Jones and Tammy Wynette - We're Gonna Hold On
TTITLE5=Guy Clark - Texas Cookin'
TTITLE6=Townes Van Zandt - If I Needed You
TTITLE7=Johnny Rodriguez - I Can't Stop Loving You
TTITLE8=Waylon Jennings - I've Been A Long Time Leaving (But I'll Be A
TTITLE8=Long Time Gone)
TTITLE9=Gram Parsons and The Fallen Angels - Love Hurts (Live)
TTITLE10=Emmylou Harris - Boulder To Birmingham
TTITLE11=Emmylou Harris - Bluebird Wine
TTITLE12=Willie Nelson - Whiskey River
TTITLE13=Asleep At The Wheel - Miles And Miles Of Texas
TTITLE14=Willie Nelson - Blue Eyes Crying In The Rain
TTITLE15=Waylon Jennings and Willie Nelson - Good Hearted Woman
TTITLE16=Hank Williams, Jr. - Family Tradition
TTITLE17=Rosanne Cash - Seven Year Ache
TTITLE18=Willie Nelson and Merle Haggard - Pancho And Lefty
TTITLE19=George Jones - He Stopped Loving Her Today
EXTD=YEAR: 2019
EXTT0=
EXTT1=
EXTT2=
EXTT3=
EXTT4=
EXTT5=
EXTT6=
EXTT7=
EXTT8=
EXTT9=
EXTT10=
EXTT11=
EXTT12=
EXTT13=
EXTT14=
EXTT15=
EXTT16=
EXTT17=
EXTT18=
EXTT19=
PLAYORDER=
